<svg id="Layer_1" data-name="Layer 1" xmlns="http://www.w3.org/2000/svg" viewBox="0 0 611 611"><defs><style>.cls-1{fill:#464747;}.cls-2{fill:#d8d8d8;}.cls-3{fill:#50b647;}</style></defs><title>Untitled-6</title><g id="Activities"><circle class="cls-1" cx="305.5" cy="305.5" r="305.5"/><path class="cls-2" d="M401.12,99.45A528,528,0,0,0,308.27,92a528,528,0,0,0-92.85,7.43C120.29,115.54,91.61,175,91.61,308.68c0,170,46.64,216.65,216.66,216.65S524.93,478.7,524.93,308.68C524.93,175,496.25,115.54,401.12,99.45ZM236.05,116.57a553.34,553.34,0,0,1,72.22-3.92,553.34,553.34,0,0,1,72.22,3.92V123a10.32,10.32,0,0,1-10.32,10.32H246.37A10.32,10.32,0,0,1,236.05,123Zm-10.32,99.25H390.81a10.32,10.32,0,0,1,0,20.64H225.73a10.32,10.32,0,0,1,0-20.64ZM390.81,401.53H225.73a10.32,10.32,0,0,1,0-20.63H390.81a10.32,10.32,0,0,1,0,20.63ZM432.07,319H184.47a10.32,10.32,0,1,1,0-20.63h247.6a10.32,10.32,0,1,1,0,20.63Z" transform="translate(-2.94 -3.33)"/><path class="cls-3" d="M246.37,133.29A10.32,10.32,0,0,1,236.05,123v-6.4a553.34,553.34,0,0,1,72.22-3.92,553.34,553.34,0,0,1,72.22,3.92V123a10.32,10.32,0,0,1-10.32,10.32H246.37" transform="translate(-2.94 -3.33)"/></g></svg>