<svg id="Layer_1" data-name="Layer 1" xmlns="http://www.w3.org/2000/svg" viewBox="0 0 611 611"><defs><style>.cls-1{fill:#464747;}.cls-2{fill:#d8d8d8;}.cls-3{fill:#50b647;}</style></defs><title>Untitled-7</title><g id="Help"><circle class="cls-1" cx="305.5" cy="305.5" r="305.5"/><path class="cls-2" d="M305.44,108c-113.5,0-205.5,92-205.5,205.5s92,205.5,205.5,205.5,205.5-92,205.5-205.5S418.93,108,305.44,108ZM321,395.22c.08,13.2-7.32,21-20.27,21s-21.57-7.56-21.62-18.62c0-15.33,6.87-23,20.55-23.39C310.78,373.94,322.37,380.76,321,395.22Zm28.77-94.85c-5.84,4.52-12,8.63-17.84,13.07a29,29,0,0,0-13.07,25.89A16.44,16.44,0,0,1,307,355.77a18.17,18.17,0,0,1-21.29-6.37,17.25,17.25,0,0,1-2.42-8.51A57.07,57.07,0,0,1,306.67,293a171,171,0,0,0,18.62-16.44A20.59,20.59,0,0,0,330.1,265c.94-11.63-6.54-19.11-18.58-19.89-14.55-1-26.8,2.83-35.3,15.7A17.23,17.23,0,0,1,258.34,269C246,267,240.71,256.92,245.76,245.37a52.77,52.77,0,0,1,25.69-25.48,89.3,89.3,0,0,1,37.24-9.12,188,188,0,0,1,21.74,3.57c21.9,6.21,34.93,23.72,36.58,47a42.75,42.75,0,0,1-17.31,39.05Z" transform="translate(-2.94 -3.82)"/><path class="cls-3" d="M321,395.22c.08,13.2-7.32,21-20.27,21s-21.57-7.56-21.62-18.62c0-15.33,6.87-23,20.55-23.39C310.78,373.94,322.37,380.76,321,395.22Z" transform="translate(-2.94 -3.82)"/></g></svg>