<svg id="Layer_1" data-name="Layer 1" xmlns="http://www.w3.org/2000/svg" viewBox="0 0 396.77 396.77"><defs><style>.cls-1{fill:#d8d8d8;}</style></defs><title>Untitled-10</title><g id="Add"><path class="cls-1" d="M171.69,200.29l-42.14,42.15a19.84,19.84,0,0,0,28,28.06l42.15-42.15L241.9,270.5A19.84,19.84,0,0,0,270,242.44l-42.15-42.15L270,158.15a19.84,19.84,0,0,0-28.06-28.06l-42.15,42.15L157.6,130.09a19.84,19.84,0,0,0-28,28.06Zm28.06,198.39C90.18,398.68,1.36,309.86,1.36,200.29S90.18,1.91,199.75,1.91,398.14,90.73,398.14,200.29,309.32,398.68,199.75,398.68Z" transform="translate(-1.36 -1.91)"/></g></svg>