<svg id="Layer_1" data-name="Layer 1" xmlns="http://www.w3.org/2000/svg" viewBox="0 0 611 611"><defs><style>.cls-1{fill:#464747;}.cls-2{fill:#d8d8d8;}.cls-3{fill:#50b647;}</style></defs><title>Untitled-4</title><g id="Contacts"><circle class="cls-1" cx="305.5" cy="305.5" r="305.5"/><path class="cls-2" d="M524,445.54c0-102.09-82.38-184.85-184-184.85S156,343.45,156,445.54,524,547.63,524,445.54ZM340,242.66c35.35,0,64-34.32,64-76.65s-28.65-76.64-64-76.64S276,123.68,276,166,304.62,242.66,340,242.66ZM129.36,439.53s-5.76-70.64,65.87-145.88A107.5,107.5,0,0,0,160,287.74c-59.65,0-108,48.58-108,108.5C52,420.47,87.29,434.9,129.36,439.53Z" transform="translate(-2.97 -3.33)"/><ellipse class="cls-3" cx="156" cy="221.29" rx="36" ry="45.08"/></g></svg>