<svg id="Layer_1" data-name="Layer 1" xmlns="http://www.w3.org/2000/svg" viewBox="0 0 301.54 301.89"><defs><style>.cls-1{fill:#d8d8d8;}</style></defs><title>Untitled-12</title><g id="Expand"><path class="cls-1" d="M104.05,303.88c0-.36,0-.36.36-.36,9.34-2.88,12.58-14.38,4-22.64-8.27-7.55-16.17-15.82-24.08-24.08a28.51,28.51,0,0,1-2.87-3.24c1.07-1.07,2.15-1.43,2.87-2.51L145,190.31c5-5,5-7.55,0-12.58l-19.05-19c-4.67-4.68-7.55-4.68-12.58,0L66,206.12,49.42,222.66a11.21,11.21,0,0,0-2.52-3.24C38.28,210.8,30,202.17,21.39,193.91c-5.39-5-12.58-5.4-17.25,0-1.8,1.79-2.52,4-4,5.75V303.52H9.89C41.15,303.88,72.78,303.88,104.05,303.88Z" transform="translate(-0.18 -1.99)"/><path class="cls-1" d="M288.41,2H202.52c-6.11,0-10.78,2.88-12.58,7.91-2.16,5.39-.72,10.06,3.24,14l13.29,13.29c4.67,4.67,9.35,9.35,14.38,14A21,21,0,0,1,218,54.1C197.49,75,177,95.43,156.52,115.92c-4,4-4,6.83,0,10.78,6.47,6.83,13.3,13.3,19.76,20.13,5,5,7.19,5,12.22,0l45.65-45.65,18-18,2.52,2.52,24.8,24.8c4.67,4.67,9.7,6.11,14.73,3.59,5.39-2.51,7.55-6.83,7.55-12.58V16C302.07,7,297,2,288.41,2Z" transform="translate(-0.18 -1.99)"/></g></svg>