<svg id="Layer_1" data-name="Layer 1" xmlns="http://www.w3.org/2000/svg" viewBox="0 0 611 611"><defs><style>.cls-1{fill:#464747;}.cls-2{fill:#50b647;}.cls-3{fill:#d8d8d8;}</style></defs><title>Untitled-9</title><circle class="cls-1" cx="305.5" cy="305.5" r="305.5"/><path class="cls-2" d="M354,294.91H339.44a37.9,37.9,0,0,0-1.5-3.6L348.27,281a12.41,12.41,0,0,0-17.55-17.55L320.4,273.77a35.53,35.53,0,0,0-3.6-1.51V257.69a12.41,12.41,0,0,0-24.82,0v14.58a35.29,35.29,0,0,0-3.59,1.5l-10.31-10.31A12.41,12.41,0,1,0,260.53,281l10.31,10.32a36.85,36.85,0,0,0-1.5,3.6H254.77a12.41,12.41,0,0,0,0,24.81h14.57a36.85,36.85,0,0,0,1.5,3.6l-10.31,10.31a12.4,12.4,0,1,0,17.54,17.54l10.31-10.31a37.9,37.9,0,0,0,3.6,1.5v14.57a12.41,12.41,0,0,0,24.82,0V342.37a36.67,36.67,0,0,0,3.59-1.5l10.32,10.32a12.41,12.41,0,0,0,17.55-17.56l-10.32-10.31a37.9,37.9,0,0,0,1.5-3.6H354a12.41,12.41,0,1,0,0-24.81ZM304.4,319.72A12.42,12.42,0,0,1,292,307.35v-.06a12.41,12.41,0,1,1,12.41,12.43Z" transform="translate(-3.3 -3.82)"/><path class="cls-3" d="M304.4,456.19A37.22,37.22,0,1,0,267.18,419,37.26,37.26,0,0,0,304.4,456.19Z" transform="translate(-3.3 -3.82)"/><path class="cls-3" d="M337.11,456.19a49.31,49.31,0,0,1-65.42,0,49.46,49.46,0,0,0-16.92,37.22,12.41,12.41,0,0,0,12.41,12.41h74.44A12.41,12.41,0,0,0,354,493.41,49.49,49.49,0,0,0,337.11,456.19Z" transform="translate(-3.3 -3.82)"/><path class="cls-3" d="M304.4,183.26A37.22,37.22,0,1,0,267.18,146,37.27,37.27,0,0,0,304.4,183.26Z" transform="translate(-3.3 -3.82)"/><path class="cls-3" d="M337.11,183.26a49.34,49.34,0,0,1-65.42,0,49.44,49.44,0,0,0-16.92,37.21,12.41,12.41,0,0,0,12.41,12.41h74.44A12.41,12.41,0,0,0,354,220.47,49.47,49.47,0,0,0,337.11,183.26Z" transform="translate(-3.3 -3.82)"/><path class="cls-3" d="M440.87,319.72a37.22,37.22,0,1,0-37.22-37.21A37.25,37.25,0,0,0,440.87,319.72Z" transform="translate(-3.3 -3.82)"/><path class="cls-3" d="M473.57,319.72a49.3,49.3,0,0,1-65.41,0,49.46,49.46,0,0,0-16.92,37.22,12.41,12.41,0,0,0,12.41,12.41h74.43a12.41,12.41,0,0,0,12.41-12.41A49.46,49.46,0,0,0,473.57,319.72Z" transform="translate(-3.3 -3.82)"/><path class="cls-3" d="M167.93,319.72a37.22,37.22,0,1,0-37.22-37.21A37.26,37.26,0,0,0,167.93,319.72Z" transform="translate(-3.3 -3.82)"/><path class="cls-3" d="M200.64,319.72a49.31,49.31,0,0,1-65.42,0,49.46,49.46,0,0,0-16.92,37.22,12.41,12.41,0,0,0,12.41,12.41h74.44a12.41,12.41,0,0,0,12.4-12.41A49.49,49.49,0,0,0,200.64,319.72Z" transform="translate(-3.3 -3.82)"/></svg>