<svg id="Layer_1" data-name="Layer 1" xmlns="http://www.w3.org/2000/svg" viewBox="0 0 611 611"><defs><style>.cls-1{fill:#464747;}.cls-2{fill:#50b647;}.cls-3{fill:#d8d8d8;}</style></defs><title>Untitled-5</title><g id="Reports"><circle class="cls-1" cx="305.5" cy="305.5" r="305.5"/><path class="cls-2" d="M439.34,449.87a26.31,26.31,0,0,0-26.28,26.28V534l84.1-84.1Z" transform="translate(-2.45 -3.97)"/><path class="cls-3" d="M197.54,176.53V481.41A52.72,52.72,0,0,0,250.11,534H386.77V476.15a52.72,52.72,0,0,1,52.57-52.56h57.82V176.53ZM350.26,389.42H265.37a4.75,4.75,0,0,1-4.75-4.75V367.76a4.62,4.62,0,0,1,4.62-4.62h85.4a4.59,4.59,0,0,1,4.6,4.59v16.71A5,5,0,0,1,350.26,389.42Zm79.95-63.08H264.87a4.25,4.25,0,0,1-4.25-4.25v-17a5.07,5.07,0,0,1,5.07-5.07H429.93a4.15,4.15,0,0,1,4.15,4.15v18.26A3.87,3.87,0,0,1,430.21,326.34Zm-.81-63.08H265.46a4.84,4.84,0,0,1-4.84-4.84V242.94a6,6,0,0,1,6-6H429.49a4.59,4.59,0,0,1,4.59,4.59v17A4.67,4.67,0,0,1,429.4,263.26Z" transform="translate(-2.45 -3.97)"/><path class="cls-3" d="M171.26,150.25H423.58V124H124V428.84a52.75,52.75,0,0,0,47.31,52.3Z" transform="translate(-2.45 -3.97)"/></g></svg>