<svg id="Layer_1" data-name="Layer 1" xmlns="http://www.w3.org/2000/svg" viewBox="0 0 442.64 330.36"><defs><style>.cls-1{fill:#d7d7d7;}.cls-2{fill:#50b647;}</style></defs><title>Artboard 1</title><g id="Saved_Reports" data-name="Saved Reports"><path class="cls-1" d="M415.53,1.44H315.7A30.94,30.94,0,0,0,287.58,19.5L282.5,30.62H101.2A31.88,31.88,0,0,0,69.61,58.21L67,77.24H25.9A24.61,24.61,0,0,0,1.5,105.17L32.3,323.71H398.7L439.92,29.37A24.61,24.61,0,0,0,415.53,1.44Zm-8.29,85.29L386,233.37,367,98.55a24.62,24.62,0,0,0-24.4-21.31H95.09a21,21,0,0,1,20-14.55H386.45A21,21,0,0,1,407.24,86.73Z"/><path class="cls-2" d="M407.24,86.73,386,233.37,367,98.55a24.62,24.62,0,0,0-24.4-21.31H95.09a21,21,0,0,1,20-14.55H386.45A21,21,0,0,1,407.24,86.73Z"/></g></svg>