<svg id="Layer_1" data-name="Layer 1" xmlns="http://www.w3.org/2000/svg" viewBox="0 0 336.55 336.04"><defs><style>.cls-1{fill:#50b647;}.cls-2{fill:#d8d8d8;}</style></defs><title>Untitled-11</title><g id="Search"><path class="cls-1" d="M137.8,54.15a84.08,84.08,0,0,0-84.07,84.08,16.82,16.82,0,0,0,33.63,0A50.45,50.45,0,0,1,137.8,87.78a16.82,16.82,0,1,0,0-33.63Z" transform="translate(-2.53 -2.96)"/><path class="cls-2" d="M334.7,311.25,245.08,222.3a135.69,135.69,0,1,0-23.2,23.2L311.33,335A16.82,16.82,0,0,0,335,311.25Zm-297.78-173A100.89,100.89,0,1,1,137.8,239.11,100.89,100.89,0,0,1,36.92,138.23Z" transform="translate(-2.53 -2.96)"/></g></svg>